<svg width="332" height="332" viewBox="0 0 332 332" fill="none" xmlns="http://www.w3.org/2000/svg">
<path d="M310.846 56.289C310.846 56.289 310.842 56.4104 310.84 56.4711L232.268 287.115C231.07 290.864 228.754 294.157 225.631 296.552C222.508 298.947 218.727 300.329 214.796 300.513C214.235 300.543 213.676 300.548 213.118 300.529C209.443 300.416 205.878 299.254 202.842 297.18C199.807 295.107 197.428 292.208 195.987 288.826L154.87 196.629C154.458 195.705 154.346 194.676 154.547 193.685C154.748 192.694 155.254 191.79 155.993 191.1L228.703 123.164C230.51 121.386 231.552 118.974 231.605 116.44C231.659 113.906 230.72 111.451 228.99 109.599C227.259 107.747 224.874 106.645 222.342 106.526C219.811 106.408 217.333 107.283 215.437 108.966L142.691 176.901C141.952 177.592 141.017 178.035 140.014 178.169C139.012 178.303 137.992 178.12 137.099 177.647L47.8168 130.384C44.3246 128.56 41.4691 125.718 39.6285 122.235C37.7879 118.752 37.0491 114.792 37.5101 110.879C37.9711 106.967 39.6101 103.287 42.2099 100.327C44.8097 97.3674 48.2476 95.2674 52.0679 94.3054L287.509 31.5508L287.691 31.5569C291.04 30.7373 294.548 30.8237 297.853 31.807C301.158 32.7904 304.143 34.6354 306.5 37.1528C308.856 39.6702 310.501 42.7693 311.265 46.1321C312.029 49.4949 311.884 53.0004 310.846 56.289Z" fill="#45D483"/>
<path d="M35.1336 148.935L93.0114 196.71L226.796 98.1523C239.42 98.5553 239.918 108.644 237.207 113.567L95.9224 277.95C87.1427 283.936 78.6922 277.878 75.5643 274.1L20 157.6C21.2961 144.8 30.6291 146.49 35.1336 148.935Z" fill="#3E2FFF"/>
</svg>
