<svg width="1341" height="363" viewBox="0 0 1341 363" fill="none" xmlns="http://www.w3.org/2000/svg">
<path d="M321.26 74.5918C321.26 74.5918 321.256 74.7132 321.254 74.7739L242.682 305.418C241.484 309.167 239.168 312.46 236.045 314.855C232.922 317.25 229.141 318.632 225.21 318.816C224.649 318.846 224.09 318.851 223.532 318.832C219.857 318.719 216.292 317.557 213.256 315.483C210.221 313.41 207.842 310.511 206.401 307.129L165.284 214.932C164.872 214.008 164.76 212.979 164.961 211.988C165.162 210.997 165.668 210.093 166.407 209.403L239.117 141.467C240.924 139.689 241.966 137.277 242.019 134.743C242.073 132.209 241.134 129.754 239.404 127.902C237.673 126.05 235.288 124.948 232.756 124.829C230.225 124.711 227.747 125.586 225.851 127.269L153.105 195.204C152.366 195.895 151.431 196.338 150.428 196.472C149.426 196.606 148.406 196.423 147.513 195.95L58.2303 148.687C54.7381 146.863 51.8826 144.021 50.042 140.538C48.2014 137.055 47.4626 133.095 47.9236 129.182C48.3846 125.27 50.0236 121.59 52.6234 118.63C55.2232 115.67 58.6611 113.57 62.4814 112.608L297.923 49.8536L298.105 49.8597C301.454 49.0401 304.962 49.1265 308.267 50.1098C311.572 51.0932 314.557 52.9382 316.914 55.4556C319.27 57.973 320.915 61.0721 321.679 64.4349C322.443 67.7977 322.298 71.3032 321.26 74.5918Z" fill="#EF469A"/>
<path d="M45.5472 167.238L103.425 215.013L237.21 116.455C249.834 116.858 250.332 126.947 247.621 131.87L106.336 296.253C97.5563 302.239 89.1058 296.181 85.9779 292.403L30.4136 175.903C31.7097 163.103 41.0427 164.793 45.5472 167.238Z" fill="#4438E7"/>
<path d="M394.921 256.285H366.261V149.343H394.707V155.332C404.546 149.629 412.959 146.777 419.946 146.777C431.495 146.777 440.407 150.128 446.681 156.829C459.799 150.128 471.777 146.777 482.614 146.777C496.73 146.777 506.497 150.912 511.916 159.182C517.477 167.31 520.257 180.357 520.257 198.323V256.285H491.597V199.178C491.597 190.053 490.599 183.351 488.602 179.073C486.606 174.653 482.614 172.443 476.625 172.443C472.062 172.443 466.501 173.441 459.942 175.437L456.734 176.507C457.304 187.201 457.589 195.328 457.589 200.889V256.285H428.929V201.317C428.929 190.766 428.002 183.351 426.148 179.073C424.295 174.653 420.231 172.443 413.957 172.443C408.396 172.443 402.906 173.441 397.488 175.437L394.921 176.293V256.285Z" fill="#F4F4F5"/>
<path d="M627.598 182.709V227.197C627.884 230.619 628.454 233.043 629.309 234.469C630.165 235.752 631.947 236.679 634.657 237.25L633.801 258.852C626.529 258.852 620.683 258.353 616.263 257.355C611.985 256.357 607.636 254.36 603.216 251.366C592.949 256.357 582.469 258.852 571.775 258.852C549.673 258.852 538.623 247.16 538.623 223.775C538.623 212.368 541.688 204.312 547.82 199.606C553.951 194.758 563.362 191.906 576.052 191.051L598.938 189.34V182.709C598.938 178.289 597.94 175.295 595.944 173.726C593.947 172.015 590.739 171.16 586.319 171.16L546.109 172.871L545.253 152.979C560.51 148.844 574.983 146.777 588.672 146.777C602.503 146.777 612.413 149.629 618.401 155.332C624.533 161.036 627.598 170.161 627.598 182.709ZM579.475 210.942C571.49 211.655 567.497 215.933 567.497 223.775C567.497 231.617 570.99 235.539 577.977 235.539C583.396 235.539 589.313 234.683 595.73 232.972L598.938 232.116V209.231L579.475 210.942Z" fill="#F4F4F5"/>
<path d="M654.92 256.285V149.343H683.581V256.285H654.92ZM654.92 135.655V106.567H683.581V135.655H654.92Z" fill="#F4F4F5"/>
<path d="M711.346 256.285V106.567H740.006V256.285H711.346Z" fill="#F4F4F5"/>
<path d="M791.238 215.006C791.381 221.565 793.092 226.342 796.371 229.336C799.793 232.188 804.641 233.614 810.915 233.614C824.176 233.614 836.011 233.186 846.42 232.33L852.409 231.689L852.837 252.863C836.439 256.856 821.609 258.852 808.349 258.852C792.236 258.852 780.544 254.574 773.272 246.019C766 237.464 762.364 223.561 762.364 204.312C762.364 165.955 778.12 146.777 809.632 146.777C840.716 146.777 856.259 162.889 856.259 195.115L854.12 215.006H791.238ZM828.026 193.19C828.026 184.634 826.671 178.717 823.962 175.437C821.253 172.015 816.476 170.304 809.632 170.304C802.93 170.304 798.154 172.086 795.302 175.651C792.593 179.073 791.167 184.919 791.024 193.19H828.026Z" fill="#F4F4F5"/>
<path d="M876.741 256.285V149.343H905.188V160.679C917.165 153.55 928.573 148.916 939.409 146.777V175.651C927.86 178.075 917.95 180.57 909.68 183.137L905.402 184.634V256.285H876.741Z" fill="#F4F4F5"/>
<path d="M990.115 173.726V256.285H961.454V173.726H949.905V149.343H961.454V144.638C961.454 129.238 963.736 118.615 968.299 112.769C972.862 106.923 980.989 104 992.681 104C997.815 104 1004.45 104.713 1012.57 106.139L1017.06 106.78L1016.64 130.094C1010.36 129.809 1005.09 129.666 1000.81 129.666C996.531 129.666 993.68 130.807 992.254 133.088C990.828 135.37 990.115 139.291 990.115 144.852V149.343H1015.99V173.726H990.115Z" fill="#F4F4F5"/>
<path d="M1095.86 149.343H1124.52V256.285H1096.08V250.297C1085.81 256 1076.9 258.852 1069.34 258.852C1054.51 258.852 1044.53 254.788 1039.4 246.661C1034.27 238.39 1031.7 224.63 1031.7 205.381V149.343H1060.36V205.809C1060.36 216.36 1061.21 223.561 1062.93 227.411C1064.64 231.261 1068.77 233.186 1075.33 233.186C1081.6 233.186 1087.52 232.188 1093.08 230.191L1095.86 229.336V149.343Z" fill="#F4F4F5"/>
<path d="M1227.77 176.079C1210.09 173.797 1197.69 172.657 1190.56 172.657C1183.57 172.657 1179.01 173.298 1176.87 174.582C1174.87 175.865 1173.87 177.933 1173.87 180.784C1173.87 183.494 1175.23 185.418 1177.94 186.559C1180.79 187.557 1187.92 189.126 1199.33 191.265C1210.88 193.261 1219.08 196.612 1223.92 201.317C1228.77 206.023 1231.2 213.651 1231.2 224.203C1231.2 247.302 1216.87 258.852 1188.2 258.852C1178.79 258.852 1167.39 257.569 1153.98 255.002L1147.14 253.719L1147.99 229.764C1165.68 232.045 1177.94 233.186 1184.78 233.186C1191.77 233.186 1196.47 232.544 1198.9 231.261C1201.47 229.835 1202.75 227.767 1202.75 225.058C1202.75 222.349 1201.39 220.353 1198.69 219.07C1196.12 217.786 1189.27 216.218 1178.15 214.364C1167.17 212.51 1158.97 209.373 1153.56 204.953C1148.14 200.533 1145.43 192.691 1145.43 181.426C1145.43 170.019 1149.28 161.463 1156.98 155.76C1164.68 149.914 1174.59 146.991 1186.71 146.991C1195.12 146.991 1206.6 148.345 1221.14 151.054L1228.2 152.338L1227.77 176.079Z" fill="#F4F4F5"/>
<path d="M1275.4 215.006C1275.54 221.565 1277.25 226.342 1280.53 229.336C1283.96 232.188 1288.8 233.614 1295.08 233.614C1308.34 233.614 1320.17 233.186 1330.58 232.33L1336.57 231.689L1337 252.863C1320.6 256.856 1305.77 258.852 1292.51 258.852C1276.4 258.852 1264.71 254.574 1257.43 246.019C1250.16 237.464 1246.53 223.561 1246.53 204.312C1246.53 165.955 1262.28 146.777 1293.79 146.777C1324.88 146.777 1340.42 162.889 1340.42 195.115L1338.28 215.006H1275.4ZM1312.19 193.19C1312.19 184.634 1310.83 178.717 1308.13 175.437C1305.42 172.015 1300.64 170.304 1293.79 170.304C1287.09 170.304 1282.32 172.086 1279.46 175.651C1276.76 179.073 1275.33 184.919 1275.19 193.19H1312.19Z" fill="#F4F4F5"/>
</svg>
